<svg width="26" height="22" viewBox="0 0 26 22" fill="none" xmlns="http://www.w3.org/2000/svg">
<path d="M15.5 12.25H14.25V11C14.25 10.6685 14.1183 10.3505 13.8839 10.1161C13.6495 9.8817 13.3315 9.75 13 9.75C12.6685 9.75 12.3505 9.8817 12.1161 10.1161C11.8817 10.3505 11.75 10.6685 11.75 11V12.25H10.5C10.1685 12.25 9.85054 12.3817 9.61612 12.6161C9.3817 12.8505 9.25 13.1685 9.25 13.5C9.25 13.8315 9.3817 14.1495 9.61612 14.3839C9.85054 14.6183 10.1685 14.75 10.5 14.75H11.75V16C11.75 16.3315 11.8817 16.6495 12.1161 16.8839C12.3505 17.1183 12.6685 17.25 13 17.25C13.3315 17.25 13.6495 17.1183 13.8839 16.8839C14.1183 16.6495 14.25 16.3315 14.25 16V14.75H15.5C15.8315 14.75 16.1495 14.6183 16.3839 14.3839C16.6183 14.1495 16.75 13.8315 16.75 13.5C16.75 13.1685 16.6183 12.8505 16.3839 12.6161C16.1495 12.3817 15.8315 12.25 15.5 12.25Z" fill="white" fill-opacity="0.38"/>
<path d="M22.375 4.8125H13.625L10.3375 0.837504C10.2212 0.694112 10.0745 0.57827 9.90812 0.498301C9.7417 0.418333 9.55963 0.376225 9.375 0.375004H3.625C2.80826 0.364977 2.02083 0.678997 1.43512 1.2483C0.849416 1.81761 0.513166 2.59581 0.5 3.4125V18.5875C0.513166 19.4042 0.849416 20.1824 1.43512 20.7517C2.02083 21.321 2.80826 21.635 3.625 21.625H22.375C23.1917 21.635 23.9792 21.321 24.5649 20.7517C25.1506 20.1824 25.4868 19.4042 25.5 18.5875V7.85C25.4868 7.03331 25.1506 6.25511 24.5649 5.6858C23.9792 5.1165 23.1917 4.80248 22.375 4.8125ZM23 18.5625C22.9953 18.6392 22.9753 18.7142 22.9411 18.783C22.9069 18.8518 22.8593 18.9131 22.801 18.9632C22.7427 19.0133 22.675 19.0513 22.6019 19.0748C22.5287 19.0982 22.4515 19.1068 22.375 19.1H3.625C3.54846 19.1068 3.47132 19.0982 3.39815 19.0748C3.32498 19.0513 3.25726 19.0133 3.199 18.9632C3.14073 18.9131 3.0931 18.8518 3.05892 18.783C3.02474 18.7142 3.00471 18.6392 3 18.5625V3.4125C3.00471 3.3358 3.02474 3.26082 3.05892 3.19199C3.0931 3.12316 3.14073 3.06188 3.199 3.01177C3.25726 2.96167 3.32498 2.92375 3.39815 2.90026C3.47132 2.87676 3.54846 2.86818 3.625 2.875H8.7875L12.0375 6.85C12.1538 6.9934 12.3005 7.10924 12.4669 7.18921C12.6333 7.26918 12.8154 7.31128 13 7.3125H22.375C22.4515 7.30568 22.5287 7.31426 22.6019 7.33776C22.675 7.36125 22.7427 7.39917 22.801 7.44927C22.8593 7.49938 22.9069 7.56066 22.9411 7.62949C22.9753 7.69832 22.9953 7.7733 23 7.85V18.5625Z" fill="white" fill-opacity="0.38"/>
</svg>
